<svg xmlns="http://www.w3.org/2000/svg"><style>:root svg:not(:target){display:none}</style><svg viewBox="0 0 26 29" fill="none" id="icon-instant"><path d="M10.8609 0C9.23173 0 7.96463 1.36758 7.96463 3.09985C7.96463 4.83212 9.23173 6.1997 10.8609 6.1997C12.49 6.1997 13.7571 4.83212 13.7571 3.09985C13.7571 1.36758 12.49 0 10.8609 0ZM10.8609 1.18524C11.8564 1.18524 12.5805 2.03314 12.5805 3.09985C12.5805 4.10275 11.7931 5.01447 10.8609 5.01447C9.86528 5.01447 9.14122 4.16657 9.14122 3.09985C9.14122 2.09696 9.91958 1.18524 10.8609 1.18524ZM0 24.89C0 26.0752 0.407282 27.0781 1.35761 27.8987C2.35319 28.7557 3.52978 28.6827 3.52978 28.6827H22.5363C23.3146 28.6827 24.3464 28.2998 25.161 27.224C26.0027 26.2211 25.9484 24.8535 25.9484 24.8535V7.53082C25.9484 7.09319 25.8398 6.92908 25.2062 6.92908C24.5727 6.92908 24.5184 7.2026 24.5184 7.5217V24.8444C24.5003 25.1453 24.446 25.9385 23.7762 26.5767C23.0431 27.2058 22.3281 27.1237 22.3281 27.1237C22.3281 27.1237 4.22668 27.1237 3.32161 27.0964C2.97769 27.0325 2.41654 26.9049 1.8735 26.1846C1.36666 25.4553 1.46622 24.5435 1.46622 24.5435V7.22083C1.46622 6.75585 1.2309 6.58263 0.742159 6.58263C0.25342 6.58263 0 6.75585 0 7.16613V24.89ZM16.2913 8.47901C15.2052 8.71605 14.1191 8.86193 12.0375 10.8495C9.95579 12.8553 8.41717 12.7641 6.87854 12.6729C5.33992 12.5818 3.71079 11.123 3.43927 10.7583C3.1044 10.4027 2.5342 10.6398 2.35319 10.8768C2.19932 11.1139 2.19932 11.5242 2.46179 11.8797C3.72889 13.065 4.90549 13.9767 7.16817 14.159C9.43085 14.3778 11.603 13.3476 13.0511 11.8797C14.4992 10.421 15.2233 10.1475 16.3094 9.96511C18.9341 9.54572 20.4727 10.5851 21.3778 11.2415C22.3734 12.3356 22.6449 12.0256 22.9164 11.7156C23.4595 10.9954 22.6901 10.4392 21.8303 9.801C20.0202 8.61576 18.3005 8.1599 16.3094 8.52459L16.2913 8.47901ZM7.24057 15.6816C6.06398 15.6816 5.15891 16.6845 5.15891 17.9609C5.15891 19.2373 6.06398 20.2402 7.24057 20.2402C8.41716 20.2402 9.32224 19.2373 9.32224 17.9609C9.32224 16.6845 8.41716 15.6816 7.24057 15.6816ZM19.0065 16.4657C17.4679 16.4657 16.2008 17.8333 16.2008 19.4744C16.2008 21.1155 17.4679 22.483 19.0065 22.483C20.5451 22.483 21.8122 21.1155 21.8122 19.4744C21.8122 17.8333 20.5451 16.4657 19.0065 16.4657ZM19.0065 17.9244C19.803 17.9244 20.4546 18.6265 20.4546 19.4744C20.4546 20.3405 19.803 21.0243 19.0065 21.0243C18.21 21.0243 17.5584 20.3223 17.5584 19.4744C17.5584 18.6082 18.21 17.9244 19.0065 17.9244Z" fill="white"></path></svg><svg viewBox="0 0 25 28" fill="none" id="icon-leaf"><path d="M24.8438 0.767C24.7434 0.317 24.3647 0 23.9325 0C23.9306 0 23.9288 0 23.9269 0C18.9891 0.033 6.98156 0.916 2.13375 8.38C-0.384376 12.258 -0.600938 17.293 1.48969 23.345C1.50562 23.392 1.53844 23.424 1.56 23.467C0.812812 25.44 0.523125 26.753 0.515624 26.79C0.406875 27.33 0.730312 27.862 1.23656 27.978C1.30219 27.993 1.36781 28 1.43344 28C1.86562 28 2.25469 27.679 2.34937 27.21C2.36906 27.108 4.75781 16.837 13.2028 10.832C13.6341 10.526 13.7503 9.905 13.4625 9.445C13.1747 8.985 12.5934 8.86 12.1622 9.168C7.37344 12.573 4.42406 17.176 2.68969 20.824C1.44844 16.246 1.77375 12.447 3.67594 9.519C7.41937 3.755 16.2984 2.365 21.6581 2.071C20.505 3.872 19.245 7.174 19.245 13C19.245 16.12 18.4153 18.522 16.7803 20.14C14.1591 22.731 9.90094 22.974 6.78656 22.724C6.26906 22.679 5.82 23.095 5.78062 23.646C5.74125 24.196 6.12844 24.676 6.64406 24.718C7.2675 24.769 7.93313 24.8 8.625 24.8C11.7956 24.8 15.4941 24.137 18.0544 21.606C20.0888 19.595 21.12 16.7 21.12 13.001C21.12 3.902 24.3356 1.905 24.3516 1.896C24.7416 1.687 24.9459 1.219 24.8438 0.767Z" fill="white"></path></svg><svg viewBox="0 0 26 31" fill="none" id="icon-watch"><path d="M5.53799 0C4.47504 0 4.47504 1.5831 5.53799 1.5831H12.1815V3.18731C5.37855 3.62002 0 9.41417 0 16.4854C0 20.4959 1.74325 24.1159 4.4963 26.5539C4.97463 26.976 5.03841 27.7254 4.60259 28.1897L3.07194 29.7412C2.32787 30.4272 3.43334 31.4931 4.10301 30.7438L6.10136 28.7069C6.45214 28.3692 6.97298 28.2847 7.4088 28.4958C9.12736 29.3397 11.0169 29.784 12.9341 29.795C14.8513 29.8059 16.7459 29.3833 18.4742 28.5591C18.8993 28.348 19.4308 28.4325 19.771 28.7702L21.7055 30.7438C22.3858 31.377 23.3638 30.4272 22.7472 29.7412L21.3016 28.2636C20.8552 27.8098 20.919 27.0605 21.4079 26.6277C22.8584 25.3585 24.0186 23.7959 24.8106 22.0447C25.6026 20.2936 26.0081 18.3944 25.9999 16.4748C25.9999 9.40362 20.5894 3.59891 13.7759 3.18731V1.5831H20.4194C21.4823 1.5831 21.4823 0 20.4194 0H5.53799ZM1.43499 16.4748C1.43499 9.94187 6.61158 4.65431 12.9999 4.65431C19.3777 4.65431 24.5543 9.94187 24.5543 16.4748C24.5543 23.0183 19.3777 28.3164 12.9999 28.3164C6.62221 28.3164 1.43499 23.0183 1.43499 16.4748ZM12.1921 8.37988C12.1921 7.28226 13.8503 7.28226 13.8503 8.37988V17.0131C13.8503 17.237 13.7607 17.4517 13.6012 17.6101C13.4418 17.7684 13.2255 17.8574 12.9999 17.8574C12.7875 17.8574 12.5836 17.7743 12.4324 17.6262C12.2812 17.478 12.1949 17.2767 12.1921 17.0658V8.37988ZM7.21746 10.9973C7.52475 10.9973 7.81945 10.8761 8.03673 10.6603C8.25402 10.4446 8.37608 10.152 8.37608 9.84688C8.37608 9.54178 8.25402 9.24918 8.03673 9.03344C7.81945 8.8177 7.52475 8.6965 7.21746 8.6965C6.93069 8.72386 6.66447 8.85633 6.47075 9.06805C6.27702 9.27977 6.16969 9.55556 6.16969 9.84161C6.16969 10.1277 6.27702 10.4034 6.47075 10.6152C6.66447 10.8269 6.93069 10.9593 7.21746 10.9867V10.9973ZM18.7718 10.9973C19.0791 10.9973 19.3738 10.8761 19.5911 10.6603C19.8083 10.4446 19.9304 10.152 19.9304 9.84688C19.9304 9.54178 19.8083 9.24918 19.5911 9.03344C19.3738 8.8177 19.0791 8.6965 18.7718 8.6965C18.485 8.72386 18.2188 8.85633 18.0251 9.06805C17.8313 9.27977 17.724 9.55556 17.724 9.84161C17.724 10.1277 17.8313 10.4034 18.0251 10.6152C18.2188 10.8269 18.485 10.9593 18.7718 10.9867V10.9973ZM8.37608 23.5882C8.37608 25.1185 6.05884 25.1185 6.05884 23.5882C6.05884 22.0579 8.37608 22.0579 8.37608 23.5882ZM12.9999 27.0288C13.1607 27.0441 13.3229 27.0259 13.4762 26.9754C13.6294 26.9248 13.7703 26.843 13.8899 26.7352C14.0094 26.6273 14.1049 26.4959 14.1703 26.3493C14.2356 26.2026 14.2694 26.044 14.2694 25.8837C14.2694 25.7233 14.2356 25.5648 14.1703 25.4181C14.1049 25.2715 14.0094 25.14 13.8899 25.0322C13.7703 24.9244 13.6294 24.8426 13.4762 24.792C13.3229 24.7414 13.1607 24.7232 12.9999 24.7386C12.7132 24.7659 12.4469 24.8984 12.2532 25.1101C12.0595 25.3219 11.9522 25.5976 11.9522 25.8837C11.9522 26.1697 12.0595 26.4455 12.2532 26.6572C12.4469 26.869 12.7132 27.0014 12.9999 27.0288ZM4.91085 16.6437C4.9263 16.8033 4.90797 16.9643 4.85704 17.1165C4.80611 17.2687 4.72371 17.4086 4.61511 17.5273C4.50651 17.646 4.37413 17.7408 4.22644 17.8057C4.07876 17.8706 3.91904 17.9041 3.75755 17.9041C3.59605 17.9041 3.43633 17.8706 3.28865 17.8057C3.14097 17.7408 3.00858 17.646 2.89998 17.5273C2.79138 17.4086 2.70898 17.2687 2.65805 17.1165C2.60712 16.9643 2.58879 16.8033 2.60424 16.6437C2.6318 16.3589 2.76522 16.0946 2.97845 15.9023C3.19169 15.7099 3.46945 15.6033 3.75755 15.6033C4.04564 15.6033 4.3234 15.7099 4.53664 15.9023C4.74987 16.0946 4.88329 16.3589 4.91085 16.6437ZM22.237 17.794C22.3978 17.8094 22.56 17.7912 22.7132 17.7406C22.8665 17.6901 23.0074 17.6082 23.127 17.5004C23.2465 17.3926 23.342 17.2611 23.4074 17.1145C23.4727 16.9679 23.5065 16.8093 23.5065 16.6489C23.5065 16.4886 23.4727 16.33 23.4074 16.1834C23.342 16.0367 23.2465 15.9053 23.127 15.7975C23.0074 15.6896 22.8665 15.6078 22.7132 15.5573C22.56 15.5067 22.3978 15.4885 22.237 15.5038C21.9502 15.5312 21.684 15.6637 21.4903 15.8754C21.2966 16.0871 21.1892 16.3629 21.1892 16.6489C21.1892 16.935 21.2966 17.2108 21.4903 17.4225C21.684 17.6342 21.9502 17.7667 22.237 17.794ZM19.9304 23.5987C19.9304 25.1185 17.6132 25.1185 17.6132 23.5882C17.6132 22.0579 19.9304 22.0579 19.9304 23.5882V23.5987Z" fill="white"></path></svg><svg viewBox="0 0 25 30" fill="none" id="icon_eat"><path fill-rule="evenodd" clip-rule="evenodd" d="M18.6173 0.0761497C18.991 -0.0786313 19.4211 0.00692445 19.7071 0.292922C20.6156 1.20142 21.8038 3.17065 22.7659 6.21082C23.7373 9.28039 24.5 13.5081 24.5 19C24.5 19.5523 24.0523 20 23.5 20H20V29C20 29.5523 19.5523 30 19 30C18.4477 30 18 29.5523 18 29V1.00003C18 0.595567 18.2436 0.230931 18.6173 0.0761497ZM20 18H22.4912C22.4053 13.1836 21.7051 9.48755 20.8591 6.81424C20.5807 5.93457 20.2885 5.1715 20 4.51895V18Z" fill="white"></path><path fill-rule="evenodd" clip-rule="evenodd" d="M6 0C6.55228 0 7 0.447715 7 1V29C7 29.5523 6.55228 30 6 30C5.44772 30 5 29.5523 5 29V1C5 0.447715 5.44772 0 6 0Z" fill="white"></path><path fill-rule="evenodd" clip-rule="evenodd" d="M1.5 0C2.05228 0 2.5 0.447715 2.5 1V6.5C2.5 7.05686 2.69203 7.81518 3.20088 8.41656C3.68001 8.98281 4.51446 9.5 5.99993 9.5C6.55221 9.5 6.99993 9.94771 6.99993 10.5C6.99993 11.0523 6.55221 11.5 5.99993 11.5C3.98547 11.5 2.56995 10.7672 1.6741 9.70844C0.807973 8.68482 0.5 7.44314 0.5 6.5V1C0.5 0.447715 0.947715 0 1.5 0Z" fill="white"></path><path fill-rule="evenodd" clip-rule="evenodd" d="M10.5 0C9.94771 0 9.5 0.447715 9.5 1V6.5C9.5 7.05686 9.30797 7.81518 8.79912 8.41656C8.31999 8.98281 7.4854 9.5 5.99993 9.5C5.44765 9.5 5.00007 9.94771 5.00007 10.5C5.00007 11.0523 5.44765 11.5 5.99993 11.5C8.01439 11.5 9.43005 10.7672 10.3259 9.70844C11.192 8.68482 11.5 7.44314 11.5 6.5V1C11.5 0.447715 11.0523 0 10.5 0Z" fill="white"></path></svg><svg viewBox="0 0 30 30" fill="none" id="plus-more"><line x1="15" x2="15" y2="30" stroke="#D3D3D3" stroke-width="2"></line><line x1="30" y1="15" y2="15" stroke="#D3D3D3" stroke-width="2"></line></svg><svg viewBox="0 0 28 22" fill="none" id="telegram"><path fill-rule="evenodd" clip-rule="evenodd" d="M23.4608 3.15291C23.6393 3.30222 23.7255 3.5349 23.6872 3.76448L21.0611 19.5214C21.0244 19.7411 20.8789 19.9273 20.6745 20.0159C20.47 20.1045 20.2346 20.0833 20.0493 19.9597L12.1708 14.7074C12.0177 14.6054 11.9145 14.4437 11.8862 14.2619C11.858 14.08 11.9074 13.8947 12.0223 13.751L14.633 10.4877L10.273 13.3944C10.077 13.525 9.82597 13.5407 9.61524 13.4353L4.36293 10.8092C4.12769 10.6915 3.98535 10.4449 4.0012 10.1824C4.01705 9.91983 4.18804 9.6921 4.43573 9.60364L22.8188 3.03826C23.038 2.95998 23.2822 3.00359 23.4608 3.15291ZM6.32626 10.3228L9.86168 12.0905L17.4231 7.0495C17.6925 6.86994 18.0525 6.91349 18.2712 7.1521C18.49 7.3907 18.5022 7.75314 18.3 8.00591L13.495 14.0121L19.9328 18.3039L22.2083 4.65058L6.32626 10.3228Z" fill="#666666"></path></svg><svg viewBox="0 0 28 22" fill="none" id="vkontakte"><path d="M1 5.33876C1 4.48373 1.5151 4.02268 2.54531 3.95562L6.51515 3.98077C6.78158 3.98077 6.95921 4.10651 7.04802 4.35799C7.45655 5.61538 7.91392 6.70094 8.42014 7.61465C8.92637 8.52835 9.58801 9.58038 10.4051 10.7707C10.4761 10.9216 10.5916 10.997 10.7514 10.997C10.8758 10.997 10.9735 10.9384 11.0445 10.821L11.1244 10.5444L11.1511 6.19379C11.1511 5.89201 11.0756 5.69083 10.9246 5.59024C10.7736 5.48965 10.4939 5.4142 10.0853 5.36391C9.76563 5.31361 9.60577 5.12919 9.60577 4.81065C9.60577 4.74359 9.61465 4.69329 9.63241 4.65976C10.0054 3.57002 11.0711 3.02515 12.8296 3.02515L14.3216 3C14.9966 3 15.5561 3.15927 16.0001 3.47781C16.4442 3.79635 16.6662 4.29931 16.6662 4.98669V10.6953C16.7906 10.7791 16.906 10.821 17.0126 10.821C17.279 10.821 17.5099 10.6701 17.7053 10.3683C19.6592 7.78649 20.716 6.05966 20.8759 5.18787C20.8759 5.1711 20.8936 5.12919 20.9291 5.06213C21.0535 4.81065 21.2577 4.5927 21.5419 4.40828C21.8261 4.22387 22.0748 4.09813 22.288 4.03107C22.359 3.99753 22.4389 3.98077 22.5277 3.98077H26.6574L26.9239 4.00592C27.2791 4.00592 27.5544 4.16519 27.7498 4.48373C27.8209 4.58432 27.8697 4.69329 27.8964 4.81065C27.923 4.92801 27.9408 5.04536 27.9496 5.16272C27.9585 5.28008 27.963 5.34714 27.963 5.36391V5.53994C27.8386 6.22732 27.5233 6.9608 27.0171 7.74038C26.5109 8.51997 25.867 9.36243 25.0855 10.2678C24.304 11.1731 23.8155 11.7682 23.6201 12.0533C23.4603 12.2544 23.3803 12.4389 23.3803 12.6065C23.3803 12.7406 23.4514 12.8915 23.5935 13.0592L27.4834 17.6864C27.6965 17.9546 27.8031 18.248 27.8031 18.5666C27.8031 18.9522 27.6432 19.2707 27.3235 19.5222C27.0038 19.7737 26.6219 19.9162 26.1779 19.9497L25.7249 19.9749H21.6752C21.6574 19.9749 21.6219 19.979 21.5686 19.9874C21.5153 19.9958 21.4798 20 21.462 20C21.0712 20 20.7071 19.8407 20.3696 19.5222C20.2453 19.3881 19.4105 18.3989 17.8652 16.5547C17.7764 16.4374 17.652 16.3284 17.4922 16.2278C17.4211 16.4961 17.3279 16.8817 17.2124 17.3846C17.097 17.8876 17.0126 18.248 16.9593 18.466L16.8794 18.8935C16.7018 19.4803 16.3287 19.8323 15.7604 19.9497L15.3874 19.9749H12.7763C11.3021 19.9749 9.83224 19.3378 8.36686 18.0636C6.90148 16.7894 5.58264 15.1423 4.41034 13.122C3.23803 11.1018 2.14566 8.75049 1.13322 6.06805C1.04441 5.8501 1 5.607 1 5.33876ZM17.0126 11.8521C16.6396 11.8521 16.3021 11.7557 16.0001 11.5629C15.6982 11.3701 15.5472 11.106 15.5472 10.7707V4.98669C15.5472 4.65138 15.4584 4.41248 15.2808 4.26997C15.1032 4.12747 14.7923 4.05621 14.3483 4.05621L12.8296 4.10651C12.0658 4.10651 11.4886 4.23225 11.0978 4.48373C11.8793 4.8358 12.2701 5.40582 12.2701 6.19379V10.6198C12.2346 11.039 12.0569 11.3868 11.7372 11.6635C11.4175 11.9401 11.0623 12.0784 10.6715 12.0784C10.1386 12.0784 9.7301 11.8353 9.44591 11.3491C8.06046 9.37081 7.03025 7.4931 6.35529 5.71598L6.1155 5.06213L2.57195 5.03698C2.34104 5.03698 2.21227 5.04956 2.18562 5.0747C2.15898 5.09985 2.14566 5.1711 2.14566 5.28846C2.14566 5.43935 2.16342 5.59862 2.19895 5.76627L2.75845 7.17456C4.25048 10.8126 5.87127 13.6795 7.62085 15.7751C9.37042 17.8708 11.0889 18.9186 12.7763 18.9186H15.4406C15.5472 18.9186 15.6271 18.8893 15.6804 18.8306C15.7337 18.7719 15.7781 18.6588 15.8136 18.4911L15.8669 18.2396L16.3732 16.0266C16.5152 15.7249 16.6396 15.5237 16.7462 15.4231C16.9415 15.2387 17.1725 15.1465 17.4389 15.1465C17.8652 15.1465 18.3003 15.3895 18.7444 15.8757L21.0091 18.5917C21.1512 18.8097 21.3022 18.9186 21.462 18.9186H25.8581C26.391 18.9186 26.6574 18.7929 26.6574 18.5414C26.6574 18.4576 26.6308 18.3738 26.5775 18.2899L22.7142 13.7382C22.4123 13.3861 22.2613 13.0089 22.2613 12.6065C22.2613 12.2041 22.4034 11.8185 22.6876 11.4497C22.9185 11.1144 23.367 10.557 24.0331 9.77737C24.6992 8.99778 25.2809 8.26849 25.7782 7.5895C26.2756 6.9105 26.6042 6.29438 26.764 5.74112L26.8439 5.4142C26.8262 5.38067 26.8173 5.32618 26.8173 5.25074C26.8173 5.1753 26.8084 5.11243 26.7907 5.06213H22.6077C22.3412 5.16272 22.1281 5.31361 21.9682 5.51479L21.8084 5.9926C21.3643 7.14941 20.2009 8.93491 18.3181 11.3491C17.9451 11.6844 17.5099 11.8521 17.0126 11.8521Z" fill="#666666"></path></svg><svg viewBox="0 0 28 22" fill="none" id="youtube"><path d="M17.8509 10.7927L12.6145 7.30184C12.5159 7.23691 12.4016 7.19985 12.2837 7.19459C12.1657 7.18934 12.0486 7.21608 11.9446 7.27198C11.8406 7.32789 11.7537 7.41087 11.693 7.51215C11.6324 7.61343 11.6002 7.72924 11.6 7.84729V14.8291C11.6001 14.9481 11.6327 15.0648 11.6942 15.1667C11.7557 15.2686 11.8438 15.3518 11.9491 15.4073C12.0524 15.4631 12.1691 15.4895 12.2864 15.4837C12.4037 15.478 12.5172 15.4402 12.6145 15.3746L17.8509 11.8837C17.9409 11.8239 18.0148 11.7429 18.0658 11.6477C18.1169 11.5526 18.1436 11.4462 18.1436 11.3382C18.1436 11.2302 18.1169 11.1239 18.0658 11.0287C18.0148 10.9335 17.9409 10.8525 17.8509 10.7927ZM12.9091 13.6073V9.06911L16.3127 11.3382L12.9091 13.6073ZM25.3891 5.04366C25.2942 4.67547 25.1131 4.33511 24.8609 4.05061C24.6086 3.76611 24.2924 3.54561 23.9382 3.40729C20.2182 1.9782 14.2509 2.00002 14 2.00002C13.7491 2.00002 7.78182 1.9782 4.06182 3.40729C3.70764 3.54561 3.3914 3.76611 3.13914 4.05061C2.88689 4.33511 2.70584 4.67547 2.61091 5.04366C2.32727 6.11275 2 8.07638 2 11.3382C2 14.6 2.32727 16.5637 2.61091 17.6327C2.70584 18.0009 2.88689 18.3413 3.13914 18.6258C3.3914 18.9103 3.70764 19.1308 4.06182 19.2691C7.78182 20.6982 13.7491 20.6764 14 20.6764H14.0764C14.8291 20.6764 20.3927 20.6327 23.9382 19.2691C24.2924 19.1308 24.6086 18.9103 24.8609 18.6258C25.1131 18.3413 25.2942 18.0009 25.3891 17.6327C25.6727 16.5637 26 14.6 26 11.3382C26 8.07638 25.6727 6.11275 25.3891 5.04366ZM24.1236 17.3055C24.0807 17.472 23.999 17.6259 23.8853 17.7548C23.7715 17.8838 23.6289 17.984 23.4691 18.0473C19.9782 19.3891 14.0655 19.3673 14 19.3673C13.9345 19.3673 8.02182 19.3891 4.53091 18.0473C4.37107 17.984 4.22846 17.8838 4.11471 17.7548C4.00096 17.6259 3.91929 17.472 3.87636 17.3055C3.61455 16.3018 3.30909 14.4582 3.30909 11.3382C3.30909 8.2182 3.61455 6.37457 3.87636 5.37093C3.91929 5.20445 4.00096 5.05047 4.11471 4.92156C4.22846 4.79264 4.37107 4.69243 4.53091 4.62911C8.02182 3.28729 13.9345 3.30911 14 3.30911C14.0655 3.30911 19.9782 3.28729 23.4691 4.62911C23.6289 4.69243 23.7715 4.79264 23.8853 4.92156C23.999 5.05047 24.0807 5.20445 24.1236 5.37093C24.3855 6.37457 24.6909 8.2182 24.6909 11.3382C24.6909 14.4582 24.3855 16.3018 24.1236 17.3055Z" fill="#666666"></path></svg></svg>